<?xml version="1.0" encoding="UTF-8"?>
<svg version="1.1" xmlns="http://www.w3.org/2000/svg" width="92" height="70">
<path d="M0 0 C30.36 0 60.72 0 92 0 C92 23.1 92 46.2 92 70 C61.64 70 31.28 70 0 70 C0 46.9 0 23.8 0 0 Z " fill="#010101" transform="translate(0,0)"/>
<path d="M0 0 C0.69134033 -0.00478363 1.38268066 -0.00956726 2.0949707 -0.01449585 C3.55064176 -0.01788486 5.00638996 -0.008752 6.46191406 0.01220703 C8.68207497 0.03899704 10.89718261 0.01243603 13.1171875 -0.01953125 C14.53646942 -0.01622696 15.95574821 -0.00982031 17.375 0 C18.65761719 0.00563965 19.94023438 0.0112793 21.26171875 0.01708984 C25.5361535 0.82433415 27.03747186 2.27937931 29.6875 5.6640625 C30 8.4765625 30 8.4765625 29.6875 10.6640625 C30.79158203 9.99697266 30.79158203 9.99697266 31.91796875 9.31640625 C32.89378906 8.75050781 33.86960938 8.18460938 34.875 7.6015625 C36.31939453 6.74884766 36.31939453 6.74884766 37.79296875 5.87890625 C41.08842882 4.49579143 42.31770817 4.82720189 45.6875 5.6640625 C45.77424429 10.12227416 45.82780513 14.58027054 45.875 19.0390625 C45.90013672 20.31007813 45.92527344 21.58109375 45.95117188 22.890625 C45.96083984 24.10234375 45.97050781 25.3140625 45.98046875 26.5625 C45.9961792 27.68317871 46.01188965 28.80385742 46.02807617 29.95849609 C45.85949097 31.29775146 45.85949097 31.29775146 45.6875 32.6640625 C42.6875 34.6640625 42.6875 34.6640625 40.796875 34.48046875 C38.23922998 33.4905654 36.19253656 32.16019071 33.9375 30.6015625 C33.13828125 30.05371094 32.3390625 29.50585938 31.515625 28.94140625 C30.91234375 28.51988281 30.3090625 28.09835938 29.6875 27.6640625 C29.8421875 28.994375 29.8421875 28.994375 30 30.3515625 C29.6875 33.6640625 29.6875 33.6640625 27.625 36.32958984 C23.95508067 39.24612647 22.02082432 39.30769738 17.375 39.328125 C16.3379895 39.33530045 16.3379895 39.33530045 15.2800293 39.34262085 C13.82435824 39.34600986 12.36861004 39.336877 10.91308594 39.31591797 C8.69292503 39.28912796 6.47781739 39.31568897 4.2578125 39.34765625 C2.83853058 39.34435196 1.41925179 39.33794531 0 39.328125 C-1.28261719 39.32248535 -2.56523437 39.3168457 -3.88671875 39.31103516 C-8.24848494 38.48729795 -9.71456371 37.22960683 -12.3125 33.6640625 C-12.95947266 30.60546875 -12.95947266 30.60546875 -12.9765625 27.2265625 C-12.98300781 26.00195312 -12.98945313 24.77734375 -12.99609375 23.515625 C-12.97675781 22.24460937 -12.95742188 20.97359375 -12.9375 19.6640625 C-12.95683594 18.39304687 -12.97617187 17.12203125 -12.99609375 15.8125 C-12.98964844 14.58789062 -12.98320312 13.36328125 -12.9765625 12.1015625 C-12.97092285 10.98652344 -12.9652832 9.87148438 -12.95947266 8.72265625 C-11.43125719 1.49794553 -6.7845804 0.0298317 0 0 Z " fill="#EFEFEF" transform="translate(29.3125,12.3359375)"/>
<path d="M0 0 C0.66209473 -0.00095673 1.32418945 -0.00191345 2.00634766 -0.00289917 C3.40852961 -0.00358076 4.8107147 -0.00172792 6.21289062 0.00244141 C8.36595713 0.00779004 10.51881502 0.0024958 12.671875 -0.00390625 C14.03125046 -0.00324546 15.3906258 -0.00196429 16.75 0 C18.61785156 0.00169189 18.61785156 0.00169189 20.5234375 0.00341797 C23.375 0.1328125 23.375 0.1328125 24.375 1.1328125 C24.47446453 2.90140443 24.50580217 4.67392701 24.5078125 6.4453125 C24.50974609 8.05792969 24.50974609 8.05792969 24.51171875 9.703125 C24.50785156 10.83492187 24.50398438 11.96671875 24.5 13.1328125 C24.50580078 14.83050781 24.50580078 14.83050781 24.51171875 16.5625 C24.51042969 17.63757813 24.50914063 18.71265625 24.5078125 19.8203125 C24.50668457 20.81417969 24.50555664 21.80804688 24.50439453 22.83203125 C24.375 25.1328125 24.375 25.1328125 23.375 26.1328125 C21.16849344 26.23293651 18.95877614 26.2636243 16.75 26.265625 C16.08790527 26.26658173 15.42581055 26.26753845 14.74365234 26.26852417 C13.34147039 26.26920576 11.9392853 26.26735292 10.53710938 26.26318359 C8.38404287 26.25783496 6.23118498 26.2631292 4.078125 26.26953125 C2.71874954 26.26887046 1.3593742 26.26758929 0 26.265625 C-1.24523437 26.26449707 -2.49046875 26.26336914 -3.7734375 26.26220703 C-6.625 26.1328125 -6.625 26.1328125 -7.625 25.1328125 C-7.72446453 23.36422057 -7.75580217 21.59169799 -7.7578125 19.8203125 C-7.75910156 18.74523437 -7.76039062 17.67015625 -7.76171875 16.5625 C-7.75591797 14.86480469 -7.75591797 14.86480469 -7.75 13.1328125 C-7.75386719 12.00101563 -7.75773437 10.86921875 -7.76171875 9.703125 C-7.76042969 8.62804687 -7.75914063 7.55296875 -7.7578125 6.4453125 C-7.75668457 5.45144531 -7.75555664 4.45757812 -7.75439453 3.43359375 C-7.48649382 -1.32998411 -4.0357667 0.00365559 0 0 Z " fill="#000000" transform="translate(29.625,18.8671875)"/>
<path d="M0 0 C0 5.28 0 10.56 0 16 C-3.63 13.69 -7.26 11.38 -11 9 C-10 5 -10 5 -8.22265625 3.515625 C-7.50980469 3.09796875 -6.79695313 2.6803125 -6.0625 2.25 C-5.35222656 1.82203125 -4.64195313 1.3940625 -3.91015625 0.953125 C-2 0 -2 0 0 0 Z " fill="#040404" transform="translate(70,24)"/>
</svg>
